<?xml version="1.0"?>
<svg xmlns="http://www.w3.org/2000/svg" xmlns:xlink="http://www.w3.org/1999/xlink" xmlns:svgjs="http://svgjs.com/svgjs" version="1.1" width="512" height="512" x="0" y="0" viewBox="0 0 512 512" style="enable-background:new 0 0 512 512" xml:space="preserve" class=""><g>
<g xmlns="http://www.w3.org/2000/svg">
	<g>
		<path d="M476.98,4.78C474.14,1.73,470.16,0,466,0H46c-4.16,0-8.14,1.73-10.98,4.78c-2.84,3.05-4.28,7.14-3.98,11.29l30,420    c0.43,5.99,4.39,11.15,10.08,13.11l180,62c1.58,0.55,3.23,0.82,4.88,0.82s3.3-0.27,4.88-0.82l180-62    c5.69-1.96,9.65-7.12,10.08-13.11l30-420C481.26,11.92,479.82,7.83,476.98,4.78z M421.74,424.05L256,481.14L90.26,424.05L62.11,30    h387.78L421.74,424.05z" fill="#495057" data-original="#000000" style="" class=""/>
	</g>
	<g>
		<path d="M412.48,64.78c-2.84-3.05-6.82-4.78-10.98-4.78h-291c-4.16,0-8.14,1.73-10.97,4.77c-2.84,3.05-4.29,7.14-3.99,11.29    l13.8,195c0.55,7.85,7.09,13.94,14.96,13.94h187l-3.58,50.72L256,354.45l-51.75-18.74l-0.49-6.8c-0.57-7.84-7.1-13.91-14.96-13.91    h-60c-4.16,0-8.13,1.73-10.97,4.77c-2.83,3.04-4.28,7.12-3.99,11.27l4.2,60.6c0.41,5.98,4.34,11.13,10,13.12l123,43.1    c1.61,0.56,3.28,0.84,4.96,0.84s3.35-0.28,4.96-0.84l123-43.1c5.65-1.98,9.58-7.13,10-13.09l12.88-180.6    c0.29-4.16-1.15-8.25-3.99-11.29c-2.84-3.05-6.81-4.78-10.97-4.78H194.36l-3.24-45h206.1c7.87,0,14.4-6.08,14.96-13.93l4.28-60    C416.76,71.91,415.31,67.82,412.48,64.78z M383.25,120H175c-4.17,0-8.14,1.73-10.98,4.78c-2.84,3.05-4.28,7.14-3.98,11.3l5.4,75    C166,218.92,172.53,225,180.4,225h195.37l-11.03,154.7L256,417.81l-108.72-38.1l-2.4-34.71h29.97l0.19,2.59    c0.43,5.9,4.29,11,9.85,13.01l66,23.9c3.3,1.2,6.92,1.2,10.22,0l66-23.9c5.57-2.01,9.44-7.13,9.85-13.04l5.4-76.5    c0.3-4.15-1.15-8.24-3.99-11.29c-2.83-3.04-6.81-4.77-10.97-4.77H138.28L126.6,90h258.79L383.25,120z" fill="#495057" data-original="#000000" style="" class=""/>
	</g>
</g>















</g></svg>
